<mxfile host="app.diagrams.net" agent="Mozilla/5.0 (Windows NT 10.0; Win64; x64) AppleWebKit/537.36 (KHTML, like Gecko) Chrome/131.0.0.0 Safari/537.36" version="24.8.6">
  <diagram name="PÃ¡gina-1" id="3at7x24ETv0sZKgb2_4Q">
    <mxGraphModel dx="866" dy="470" grid="1" gridSize="10" guides="1" tooltips="1" connect="1" arrows="1" fold="1" page="1" pageScale="1" pageWidth="3300" pageHeight="4681" math="0" shadow="0">
      <root>
        <mxCell id="0" />
        <mxCell id="1" parent="0" />
        <mxCell id="y8KlxEAlmwIgQg3cvcYe-1" style="edgeStyle=orthogonalEdgeStyle;rounded=0;orthogonalLoop=1;jettySize=auto;html=1;exitX=0;exitY=0.5;exitDx=0;exitDy=0;entryX=1;entryY=0.5;entryDx=0;entryDy=0;endArrow=none;endFill=0;" edge="1" parent="1" source="y8KlxEAlmwIgQg3cvcYe-2" target="y8KlxEAlmwIgQg3cvcYe-7">
          <mxGeometry relative="1" as="geometry" />
        </mxCell>
        <mxCell id="y8KlxEAlmwIgQg3cvcYe-2" value="Usuarios" style="rounded=0;whiteSpace=wrap;html=1;fillColor=#d5e8d4;strokeColor=#82b366;" vertex="1" parent="1">
          <mxGeometry x="240" y="395" width="120" height="60" as="geometry" />
        </mxCell>
        <mxCell id="y8KlxEAlmwIgQg3cvcYe-3" value="" style="endArrow=none;html=1;rounded=0;exitX=0;exitY=0.25;exitDx=0;exitDy=0;entryX=1;entryY=0.5;entryDx=0;entryDy=0;" edge="1" parent="1" source="y8KlxEAlmwIgQg3cvcYe-2" target="y8KlxEAlmwIgQg3cvcYe-4">
          <mxGeometry width="50" height="50" relative="1" as="geometry">
            <mxPoint x="620" y="485" as="sourcePoint" />
            <mxPoint x="200" y="335" as="targetPoint" />
          </mxGeometry>
        </mxCell>
        <mxCell id="y8KlxEAlmwIgQg3cvcYe-4" value="Nombre" style="ellipse;whiteSpace=wrap;html=1;fillColor=#b1ddf0;strokeColor=#10739e;" vertex="1" parent="1">
          <mxGeometry x="40" y="305" width="120" height="40" as="geometry" />
        </mxCell>
        <mxCell id="y8KlxEAlmwIgQg3cvcYe-5" value="" style="endArrow=none;html=1;rounded=0;exitX=0;exitY=0.25;exitDx=0;exitDy=0;entryX=1;entryY=0.5;entryDx=0;entryDy=0;" edge="1" parent="1" source="y8KlxEAlmwIgQg3cvcYe-2" target="y8KlxEAlmwIgQg3cvcYe-6">
          <mxGeometry width="50" height="50" relative="1" as="geometry">
            <mxPoint x="260" y="385" as="sourcePoint" />
            <mxPoint x="160" y="375" as="targetPoint" />
          </mxGeometry>
        </mxCell>
        <mxCell id="y8KlxEAlmwIgQg3cvcYe-6" value="Apellido" style="ellipse;whiteSpace=wrap;html=1;fillColor=#b1ddf0;strokeColor=#10739e;" vertex="1" parent="1">
          <mxGeometry x="40" y="355" width="120" height="40" as="geometry" />
        </mxCell>
        <mxCell id="y8KlxEAlmwIgQg3cvcYe-7" value="Email" style="ellipse;whiteSpace=wrap;html=1;fillColor=#b1ddf0;strokeColor=#10739e;" vertex="1" parent="1">
          <mxGeometry x="40" y="405" width="120" height="40" as="geometry" />
        </mxCell>
        <mxCell id="y8KlxEAlmwIgQg3cvcYe-8" value="Password" style="ellipse;whiteSpace=wrap;html=1;fillColor=#b1ddf0;strokeColor=#10739e;" vertex="1" parent="1">
          <mxGeometry x="40" y="455" width="120" height="40" as="geometry" />
        </mxCell>
        <mxCell id="y8KlxEAlmwIgQg3cvcYe-9" value="idRol" style="ellipse;whiteSpace=wrap;html=1;fillColor=#b1ddf0;strokeColor=#10739e;" vertex="1" parent="1">
          <mxGeometry x="40" y="505" width="120" height="40" as="geometry" />
        </mxCell>
        <mxCell id="y8KlxEAlmwIgQg3cvcYe-10" value="" style="endArrow=none;html=1;rounded=0;exitX=1;exitY=0.5;exitDx=0;exitDy=0;entryX=0;entryY=0.75;entryDx=0;entryDy=0;" edge="1" parent="1" source="y8KlxEAlmwIgQg3cvcYe-8" target="y8KlxEAlmwIgQg3cvcYe-2">
          <mxGeometry width="50" height="50" relative="1" as="geometry">
            <mxPoint x="620" y="485" as="sourcePoint" />
            <mxPoint x="670" y="435" as="targetPoint" />
          </mxGeometry>
        </mxCell>
        <mxCell id="y8KlxEAlmwIgQg3cvcYe-11" value="" style="endArrow=none;html=1;rounded=0;exitX=1;exitY=0.5;exitDx=0;exitDy=0;entryX=0;entryY=0.75;entryDx=0;entryDy=0;" edge="1" parent="1" source="y8KlxEAlmwIgQg3cvcYe-9" target="y8KlxEAlmwIgQg3cvcYe-2">
          <mxGeometry width="50" height="50" relative="1" as="geometry">
            <mxPoint x="620" y="485" as="sourcePoint" />
            <mxPoint x="670" y="435" as="targetPoint" />
          </mxGeometry>
        </mxCell>
        <mxCell id="y8KlxEAlmwIgQg3cvcYe-12" value="Personajes" style="rounded=0;whiteSpace=wrap;html=1;fillColor=#d5e8d4;strokeColor=#82b366;" vertex="1" parent="1">
          <mxGeometry x="640" y="395" width="120" height="60" as="geometry" />
        </mxCell>
        <mxCell id="y8KlxEAlmwIgQg3cvcYe-13" value="Nombre" style="ellipse;whiteSpace=wrap;html=1;fillColor=#b1ddf0;strokeColor=#10739e;" vertex="1" parent="1">
          <mxGeometry x="880" y="180" width="120" height="40" as="geometry" />
        </mxCell>
        <mxCell id="y8KlxEAlmwIgQg3cvcYe-14" value="Apellido" style="ellipse;whiteSpace=wrap;html=1;fillColor=#b1ddf0;strokeColor=#10739e;" vertex="1" parent="1">
          <mxGeometry x="880" y="230" width="120" height="40" as="geometry" />
        </mxCell>
        <mxCell id="y8KlxEAlmwIgQg3cvcYe-15" value="Nivel" style="ellipse;whiteSpace=wrap;html=1;fillColor=#b1ddf0;strokeColor=#10739e;" vertex="1" parent="1">
          <mxGeometry x="880" y="280" width="120" height="40" as="geometry" />
        </mxCell>
        <mxCell id="y8KlxEAlmwIgQg3cvcYe-16" value="Peso" style="ellipse;whiteSpace=wrap;html=1;fillColor=#b1ddf0;strokeColor=#10739e;" vertex="1" parent="1">
          <mxGeometry x="880" y="330" width="120" height="40" as="geometry" />
        </mxCell>
        <mxCell id="y8KlxEAlmwIgQg3cvcYe-17" value="Altura" style="ellipse;whiteSpace=wrap;html=1;fillColor=#b1ddf0;strokeColor=#10739e;" vertex="1" parent="1">
          <mxGeometry x="880" y="380" width="120" height="40" as="geometry" />
        </mxCell>
        <mxCell id="y8KlxEAlmwIgQg3cvcYe-18" value="Color_Cabello" style="ellipse;whiteSpace=wrap;html=1;fillColor=#b1ddf0;strokeColor=#10739e;" vertex="1" parent="1">
          <mxGeometry x="880" y="430" width="120" height="40" as="geometry" />
        </mxCell>
        <mxCell id="y8KlxEAlmwIgQg3cvcYe-19" value="Edad" style="ellipse;whiteSpace=wrap;html=1;fillColor=#b1ddf0;strokeColor=#10739e;" vertex="1" parent="1">
          <mxGeometry x="880" y="480" width="120" height="40" as="geometry" />
        </mxCell>
        <mxCell id="y8KlxEAlmwIgQg3cvcYe-20" value="Color_Ojos" style="ellipse;whiteSpace=wrap;html=1;fillColor=#b1ddf0;strokeColor=#10739e;" vertex="1" parent="1">
          <mxGeometry x="880" y="530" width="120" height="40" as="geometry" />
        </mxCell>
        <mxCell id="y8KlxEAlmwIgQg3cvcYe-21" value="Sexo" style="ellipse;whiteSpace=wrap;html=1;fillColor=#b1ddf0;strokeColor=#10739e;" vertex="1" parent="1">
          <mxGeometry x="880" y="580" width="120" height="40" as="geometry" />
        </mxCell>
        <mxCell id="y8KlxEAlmwIgQg3cvcYe-22" value="IdMaldicion" style="ellipse;whiteSpace=wrap;html=1;fillColor=#b1ddf0;strokeColor=#10739e;" vertex="1" parent="1">
          <mxGeometry x="880" y="630" width="120" height="40" as="geometry" />
        </mxCell>
        <mxCell id="y8KlxEAlmwIgQg3cvcYe-23" value="" style="endArrow=none;html=1;rounded=0;exitX=0;exitY=0.5;exitDx=0;exitDy=0;entryX=1;entryY=0;entryDx=0;entryDy=0;" edge="1" parent="1" source="y8KlxEAlmwIgQg3cvcYe-13" target="y8KlxEAlmwIgQg3cvcYe-12">
          <mxGeometry width="50" height="50" relative="1" as="geometry">
            <mxPoint x="620" y="485" as="sourcePoint" />
            <mxPoint x="670" y="435" as="targetPoint" />
          </mxGeometry>
        </mxCell>
        <mxCell id="y8KlxEAlmwIgQg3cvcYe-24" value="" style="endArrow=none;html=1;rounded=0;entryX=0;entryY=0.5;entryDx=0;entryDy=0;exitX=1;exitY=0;exitDx=0;exitDy=0;" edge="1" parent="1" source="y8KlxEAlmwIgQg3cvcYe-12" target="y8KlxEAlmwIgQg3cvcYe-14">
          <mxGeometry width="50" height="50" relative="1" as="geometry">
            <mxPoint x="620" y="485" as="sourcePoint" />
            <mxPoint x="670" y="435" as="targetPoint" />
          </mxGeometry>
        </mxCell>
        <mxCell id="y8KlxEAlmwIgQg3cvcYe-25" value="" style="endArrow=none;html=1;rounded=0;entryX=0;entryY=0.5;entryDx=0;entryDy=0;exitX=1;exitY=0.25;exitDx=0;exitDy=0;" edge="1" parent="1" source="y8KlxEAlmwIgQg3cvcYe-12" target="y8KlxEAlmwIgQg3cvcYe-15">
          <mxGeometry width="50" height="50" relative="1" as="geometry">
            <mxPoint x="620" y="485" as="sourcePoint" />
            <mxPoint x="670" y="435" as="targetPoint" />
          </mxGeometry>
        </mxCell>
        <mxCell id="y8KlxEAlmwIgQg3cvcYe-26" value="" style="endArrow=none;html=1;rounded=0;entryX=0;entryY=0.5;entryDx=0;entryDy=0;exitX=1;exitY=0.25;exitDx=0;exitDy=0;" edge="1" parent="1" source="y8KlxEAlmwIgQg3cvcYe-12" target="y8KlxEAlmwIgQg3cvcYe-16">
          <mxGeometry width="50" height="50" relative="1" as="geometry">
            <mxPoint x="620" y="485" as="sourcePoint" />
            <mxPoint x="670" y="435" as="targetPoint" />
          </mxGeometry>
        </mxCell>
        <mxCell id="y8KlxEAlmwIgQg3cvcYe-27" value="" style="endArrow=none;html=1;rounded=0;entryX=0;entryY=0.5;entryDx=0;entryDy=0;exitX=1;exitY=0.5;exitDx=0;exitDy=0;" edge="1" parent="1" source="y8KlxEAlmwIgQg3cvcYe-12" target="y8KlxEAlmwIgQg3cvcYe-17">
          <mxGeometry width="50" height="50" relative="1" as="geometry">
            <mxPoint x="620" y="485" as="sourcePoint" />
            <mxPoint x="670" y="435" as="targetPoint" />
          </mxGeometry>
        </mxCell>
        <mxCell id="y8KlxEAlmwIgQg3cvcYe-28" value="" style="endArrow=none;html=1;rounded=0;entryX=0;entryY=0.5;entryDx=0;entryDy=0;exitX=1;exitY=0.5;exitDx=0;exitDy=0;" edge="1" parent="1" source="y8KlxEAlmwIgQg3cvcYe-12" target="y8KlxEAlmwIgQg3cvcYe-18">
          <mxGeometry width="50" height="50" relative="1" as="geometry">
            <mxPoint x="620" y="485" as="sourcePoint" />
            <mxPoint x="670" y="435" as="targetPoint" />
          </mxGeometry>
        </mxCell>
        <mxCell id="y8KlxEAlmwIgQg3cvcYe-29" value="" style="endArrow=none;html=1;rounded=0;entryX=0;entryY=0.5;entryDx=0;entryDy=0;exitX=1;exitY=0.75;exitDx=0;exitDy=0;" edge="1" parent="1" source="y8KlxEAlmwIgQg3cvcYe-12" target="y8KlxEAlmwIgQg3cvcYe-19">
          <mxGeometry width="50" height="50" relative="1" as="geometry">
            <mxPoint x="620" y="485" as="sourcePoint" />
            <mxPoint x="670" y="435" as="targetPoint" />
          </mxGeometry>
        </mxCell>
        <mxCell id="y8KlxEAlmwIgQg3cvcYe-30" value="" style="endArrow=none;html=1;rounded=0;entryX=0;entryY=0.5;entryDx=0;entryDy=0;exitX=1;exitY=0.75;exitDx=0;exitDy=0;" edge="1" parent="1" source="y8KlxEAlmwIgQg3cvcYe-12" target="y8KlxEAlmwIgQg3cvcYe-20">
          <mxGeometry width="50" height="50" relative="1" as="geometry">
            <mxPoint x="620" y="485" as="sourcePoint" />
            <mxPoint x="670" y="435" as="targetPoint" />
          </mxGeometry>
        </mxCell>
        <mxCell id="y8KlxEAlmwIgQg3cvcYe-31" value="" style="endArrow=none;html=1;rounded=0;entryX=0;entryY=0.5;entryDx=0;entryDy=0;exitX=1;exitY=1;exitDx=0;exitDy=0;" edge="1" parent="1" source="y8KlxEAlmwIgQg3cvcYe-12" target="y8KlxEAlmwIgQg3cvcYe-21">
          <mxGeometry width="50" height="50" relative="1" as="geometry">
            <mxPoint x="620" y="485" as="sourcePoint" />
            <mxPoint x="670" y="435" as="targetPoint" />
          </mxGeometry>
        </mxCell>
        <mxCell id="y8KlxEAlmwIgQg3cvcYe-32" value="" style="endArrow=none;html=1;rounded=0;entryX=0;entryY=0.5;entryDx=0;entryDy=0;exitX=1;exitY=1;exitDx=0;exitDy=0;" edge="1" parent="1" source="y8KlxEAlmwIgQg3cvcYe-12" target="y8KlxEAlmwIgQg3cvcYe-22">
          <mxGeometry width="50" height="50" relative="1" as="geometry">
            <mxPoint x="620" y="485" as="sourcePoint" />
            <mxPoint x="670" y="435" as="targetPoint" />
          </mxGeometry>
        </mxCell>
        <mxCell id="y8KlxEAlmwIgQg3cvcYe-33" value="" style="endArrow=none;html=1;rounded=0;exitX=1;exitY=0.5;exitDx=0;exitDy=0;entryX=0;entryY=0.5;entryDx=0;entryDy=0;" edge="1" parent="1" source="y8KlxEAlmwIgQg3cvcYe-2" target="y8KlxEAlmwIgQg3cvcYe-34">
          <mxGeometry width="50" height="50" relative="1" as="geometry">
            <mxPoint x="620" y="485" as="sourcePoint" />
            <mxPoint x="430" y="425" as="targetPoint" />
          </mxGeometry>
        </mxCell>
        <mxCell id="y8KlxEAlmwIgQg3cvcYe-34" value="Pertenece" style="rhombus;whiteSpace=wrap;html=1;fillColor=#fad7ac;strokeColor=#b46504;" vertex="1" parent="1">
          <mxGeometry x="460" y="385" width="80" height="80" as="geometry" />
        </mxCell>
        <mxCell id="y8KlxEAlmwIgQg3cvcYe-35" value="" style="endArrow=none;html=1;rounded=0;entryX=0;entryY=0.5;entryDx=0;entryDy=0;exitX=1;exitY=0.5;exitDx=0;exitDy=0;" edge="1" parent="1" source="y8KlxEAlmwIgQg3cvcYe-34" target="y8KlxEAlmwIgQg3cvcYe-12">
          <mxGeometry width="50" height="50" relative="1" as="geometry">
            <mxPoint x="620" y="485" as="sourcePoint" />
            <mxPoint x="670" y="435" as="targetPoint" />
          </mxGeometry>
        </mxCell>
        <mxCell id="y8KlxEAlmwIgQg3cvcYe-36" value="Nacionalidades" style="rounded=0;whiteSpace=wrap;html=1;fillColor=#d5e8d4;strokeColor=#82b366;" vertex="1" parent="1">
          <mxGeometry x="640" y="890" width="120" height="60" as="geometry" />
        </mxCell>
        <mxCell id="y8KlxEAlmwIgQg3cvcYe-37" value="Tiene" style="rhombus;whiteSpace=wrap;html=1;fillColor=#fad7ac;strokeColor=#b46504;" vertex="1" parent="1">
          <mxGeometry x="660" y="620" width="80" height="80" as="geometry" />
        </mxCell>
        <mxCell id="y8KlxEAlmwIgQg3cvcYe-38" value="" style="endArrow=none;html=1;rounded=0;exitX=0.5;exitY=0;exitDx=0;exitDy=0;entryX=0.5;entryY=1;entryDx=0;entryDy=0;" edge="1" parent="1" source="y8KlxEAlmwIgQg3cvcYe-37" target="y8KlxEAlmwIgQg3cvcYe-12">
          <mxGeometry width="50" height="50" relative="1" as="geometry">
            <mxPoint x="620" y="485" as="sourcePoint" />
            <mxPoint x="670" y="435" as="targetPoint" />
          </mxGeometry>
        </mxCell>
        <mxCell id="y8KlxEAlmwIgQg3cvcYe-39" value="" style="endArrow=none;html=1;rounded=0;exitX=0.5;exitY=0;exitDx=0;exitDy=0;entryX=0.5;entryY=1;entryDx=0;entryDy=0;" edge="1" parent="1" source="y8KlxEAlmwIgQg3cvcYe-36" target="y8KlxEAlmwIgQg3cvcYe-37">
          <mxGeometry width="50" height="50" relative="1" as="geometry">
            <mxPoint x="620" y="485" as="sourcePoint" />
            <mxPoint x="670" y="435" as="targetPoint" />
          </mxGeometry>
        </mxCell>
        <mxCell id="y8KlxEAlmwIgQg3cvcYe-40" value="Pais" style="ellipse;whiteSpace=wrap;html=1;fillColor=#b1ddf0;strokeColor=#10739e;" vertex="1" parent="1">
          <mxGeometry x="880" y="880" width="120" height="40" as="geometry" />
        </mxCell>
        <mxCell id="y8KlxEAlmwIgQg3cvcYe-41" value="Nacionalidad" style="ellipse;whiteSpace=wrap;html=1;fillColor=#b1ddf0;strokeColor=#10739e;" vertex="1" parent="1">
          <mxGeometry x="880" y="930" width="120" height="40" as="geometry" />
        </mxCell>
        <mxCell id="y8KlxEAlmwIgQg3cvcYe-42" value="" style="endArrow=none;html=1;rounded=0;entryX=0;entryY=0.5;entryDx=0;entryDy=0;exitX=1;exitY=0.5;exitDx=0;exitDy=0;" edge="1" parent="1" source="y8KlxEAlmwIgQg3cvcYe-36" target="y8KlxEAlmwIgQg3cvcYe-40">
          <mxGeometry width="50" height="50" relative="1" as="geometry">
            <mxPoint x="620" y="990" as="sourcePoint" />
            <mxPoint x="670" y="940" as="targetPoint" />
          </mxGeometry>
        </mxCell>
        <mxCell id="y8KlxEAlmwIgQg3cvcYe-43" value="" style="endArrow=none;html=1;rounded=0;entryX=0;entryY=0.5;entryDx=0;entryDy=0;exitX=1;exitY=0.5;exitDx=0;exitDy=0;" edge="1" parent="1" source="y8KlxEAlmwIgQg3cvcYe-36" target="y8KlxEAlmwIgQg3cvcYe-41">
          <mxGeometry width="50" height="50" relative="1" as="geometry">
            <mxPoint x="620" y="990" as="sourcePoint" />
            <mxPoint x="670" y="940" as="targetPoint" />
          </mxGeometry>
        </mxCell>
        <mxCell id="y8KlxEAlmwIgQg3cvcYe-44" value="Maldiciones" style="rounded=0;whiteSpace=wrap;html=1;fillColor=#d5e8d4;strokeColor=#82b366;" vertex="1" parent="1">
          <mxGeometry x="640" y="40" width="120" height="60" as="geometry" />
        </mxCell>
        <mxCell id="y8KlxEAlmwIgQg3cvcYe-45" value="Nombre_Maldicion" style="ellipse;whiteSpace=wrap;html=1;fillColor=#b1ddf0;strokeColor=#10739e;" vertex="1" parent="1">
          <mxGeometry x="880" y="50" width="120" height="40" as="geometry" />
        </mxCell>
        <mxCell id="y8KlxEAlmwIgQg3cvcYe-46" value="" style="endArrow=none;html=1;rounded=0;entryX=0;entryY=0.5;entryDx=0;entryDy=0;exitX=1;exitY=0.5;exitDx=0;exitDy=0;" edge="1" parent="1" source="y8KlxEAlmwIgQg3cvcYe-44" target="y8KlxEAlmwIgQg3cvcYe-45">
          <mxGeometry width="50" height="50" relative="1" as="geometry">
            <mxPoint x="620" y="150" as="sourcePoint" />
            <mxPoint x="670" y="100" as="targetPoint" />
          </mxGeometry>
        </mxCell>
        <mxCell id="y8KlxEAlmwIgQg3cvcYe-47" value="Tiene" style="rhombus;whiteSpace=wrap;html=1;fillColor=#fad7ac;strokeColor=#b46504;" vertex="1" parent="1">
          <mxGeometry x="660" y="210" width="80" height="80" as="geometry" />
        </mxCell>
        <mxCell id="y8KlxEAlmwIgQg3cvcYe-48" value="" style="endArrow=none;html=1;rounded=0;entryX=0.5;entryY=1;entryDx=0;entryDy=0;exitX=0.5;exitY=0;exitDx=0;exitDy=0;" edge="1" parent="1" source="y8KlxEAlmwIgQg3cvcYe-47" target="y8KlxEAlmwIgQg3cvcYe-44">
          <mxGeometry width="50" height="50" relative="1" as="geometry">
            <mxPoint x="620" y="150" as="sourcePoint" />
            <mxPoint x="670" y="100" as="targetPoint" />
          </mxGeometry>
        </mxCell>
        <mxCell id="y8KlxEAlmwIgQg3cvcYe-49" value="" style="endArrow=none;html=1;rounded=0;entryX=0.5;entryY=1;entryDx=0;entryDy=0;exitX=0.5;exitY=0;exitDx=0;exitDy=0;" edge="1" parent="1" source="y8KlxEAlmwIgQg3cvcYe-12" target="y8KlxEAlmwIgQg3cvcYe-47">
          <mxGeometry width="50" height="50" relative="1" as="geometry">
            <mxPoint x="620" y="150" as="sourcePoint" />
            <mxPoint x="670" y="100" as="targetPoint" />
          </mxGeometry>
        </mxCell>
        <mxCell id="y8KlxEAlmwIgQg3cvcYe-50" value="Roles" style="rounded=0;whiteSpace=wrap;html=1;fillColor=#d5e8d4;strokeColor=#82b366;" vertex="1" parent="1">
          <mxGeometry x="240" y="40" width="120" height="60" as="geometry" />
        </mxCell>
        <mxCell id="y8KlxEAlmwIgQg3cvcYe-51" value="nombre_Rol" style="ellipse;whiteSpace=wrap;html=1;fillColor=#b1ddf0;strokeColor=#10739e;" vertex="1" parent="1">
          <mxGeometry x="40" y="50" width="120" height="40" as="geometry" />
        </mxCell>
        <mxCell id="y8KlxEAlmwIgQg3cvcYe-52" value="" style="endArrow=none;html=1;rounded=0;exitX=1;exitY=0.5;exitDx=0;exitDy=0;entryX=0;entryY=0.5;entryDx=0;entryDy=0;" edge="1" parent="1" source="y8KlxEAlmwIgQg3cvcYe-51" target="y8KlxEAlmwIgQg3cvcYe-50">
          <mxGeometry width="50" height="50" relative="1" as="geometry">
            <mxPoint x="620" y="-10" as="sourcePoint" />
            <mxPoint x="670" y="-60" as="targetPoint" />
          </mxGeometry>
        </mxCell>
        <mxCell id="y8KlxEAlmwIgQg3cvcYe-53" value="Tiene" style="rhombus;whiteSpace=wrap;html=1;fillColor=#fad7ac;strokeColor=#b46504;" vertex="1" parent="1">
          <mxGeometry x="260" y="210" width="80" height="80" as="geometry" />
        </mxCell>
        <mxCell id="y8KlxEAlmwIgQg3cvcYe-54" value="" style="endArrow=none;html=1;rounded=0;exitX=0.5;exitY=0;exitDx=0;exitDy=0;entryX=0.5;entryY=1;entryDx=0;entryDy=0;" edge="1" parent="1" source="y8KlxEAlmwIgQg3cvcYe-53" target="y8KlxEAlmwIgQg3cvcYe-50">
          <mxGeometry width="50" height="50" relative="1" as="geometry">
            <mxPoint x="620" y="150" as="sourcePoint" />
            <mxPoint x="670" y="100" as="targetPoint" />
          </mxGeometry>
        </mxCell>
        <mxCell id="y8KlxEAlmwIgQg3cvcYe-55" value="" style="endArrow=none;html=1;rounded=0;exitX=0.5;exitY=0;exitDx=0;exitDy=0;entryX=0.5;entryY=1;entryDx=0;entryDy=0;" edge="1" parent="1" source="y8KlxEAlmwIgQg3cvcYe-2" target="y8KlxEAlmwIgQg3cvcYe-53">
          <mxGeometry width="50" height="50" relative="1" as="geometry">
            <mxPoint x="299.5" y="395" as="sourcePoint" />
            <mxPoint x="300" y="310" as="targetPoint" />
          </mxGeometry>
        </mxCell>
        <mxCell id="y8KlxEAlmwIgQg3cvcYe-56" value="(1 , M)" style="text;html=1;align=center;verticalAlign=middle;whiteSpace=wrap;rounded=0;" vertex="1" parent="1">
          <mxGeometry x="580" y="395" width="60" height="30" as="geometry" />
        </mxCell>
        <mxCell id="y8KlxEAlmwIgQg3cvcYe-57" value="(1 , 1)" style="text;html=1;align=center;verticalAlign=middle;whiteSpace=wrap;rounded=0;" vertex="1" parent="1">
          <mxGeometry x="360" y="395" width="60" height="30" as="geometry" />
        </mxCell>
        <mxCell id="y8KlxEAlmwIgQg3cvcYe-58" value="1 , M" style="text;html=1;align=center;verticalAlign=middle;whiteSpace=wrap;rounded=0;" vertex="1" parent="1">
          <mxGeometry x="470" y="350" width="60" height="30" as="geometry" />
        </mxCell>
        <mxCell id="y8KlxEAlmwIgQg3cvcYe-59" value="(1 , N)" style="text;html=1;align=center;verticalAlign=middle;whiteSpace=wrap;rounded=0;" vertex="1" parent="1">
          <mxGeometry x="300" y="100" width="60" height="30" as="geometry" />
        </mxCell>
        <mxCell id="y8KlxEAlmwIgQg3cvcYe-60" value="(1 , M)" style="text;html=1;align=center;verticalAlign=middle;whiteSpace=wrap;rounded=0;" vertex="1" parent="1">
          <mxGeometry x="300" y="365" width="60" height="30" as="geometry" />
        </mxCell>
        <mxCell id="y8KlxEAlmwIgQg3cvcYe-61" value="N , M" style="text;html=1;align=center;verticalAlign=middle;whiteSpace=wrap;rounded=0;" vertex="1" parent="1">
          <mxGeometry x="340" y="235" width="60" height="30" as="geometry" />
        </mxCell>
        <mxCell id="y8KlxEAlmwIgQg3cvcYe-62" value="(1 , 1)" style="text;html=1;align=center;verticalAlign=middle;whiteSpace=wrap;rounded=0;" vertex="1" parent="1">
          <mxGeometry x="700" y="100" width="60" height="30" as="geometry" />
        </mxCell>
        <mxCell id="y8KlxEAlmwIgQg3cvcYe-63" value="(1 , M)" style="text;html=1;align=center;verticalAlign=middle;whiteSpace=wrap;rounded=0;" vertex="1" parent="1">
          <mxGeometry x="700" y="365" width="60" height="30" as="geometry" />
        </mxCell>
        <mxCell id="y8KlxEAlmwIgQg3cvcYe-64" value="1 , M" style="text;html=1;align=center;verticalAlign=middle;whiteSpace=wrap;rounded=0;" vertex="1" parent="1">
          <mxGeometry x="740" y="235" width="60" height="30" as="geometry" />
        </mxCell>
        <mxCell id="y8KlxEAlmwIgQg3cvcYe-65" value="(1 , 1)" style="text;html=1;align=center;verticalAlign=middle;whiteSpace=wrap;rounded=0;" vertex="1" parent="1">
          <mxGeometry x="700" y="850" width="60" height="30" as="geometry" />
        </mxCell>
        <mxCell id="y8KlxEAlmwIgQg3cvcYe-66" value="(1 , M)" style="text;html=1;align=center;verticalAlign=middle;whiteSpace=wrap;rounded=0;" vertex="1" parent="1">
          <mxGeometry x="700" y="455" width="60" height="30" as="geometry" />
        </mxCell>
        <mxCell id="y8KlxEAlmwIgQg3cvcYe-67" value="1 , M" style="text;html=1;align=center;verticalAlign=middle;whiteSpace=wrap;rounded=0;" vertex="1" parent="1">
          <mxGeometry x="740" y="645" width="60" height="30" as="geometry" />
        </mxCell>
        <mxCell id="y8KlxEAlmwIgQg3cvcYe-68" value="idUsuario" style="ellipse;whiteSpace=wrap;html=1;fillColor=#b1ddf0;strokeColor=#10739e;" vertex="1" parent="1">
          <mxGeometry x="880" y="680" width="120" height="40" as="geometry" />
        </mxCell>
        <mxCell id="y8KlxEAlmwIgQg3cvcYe-69" value="idNacionalidad" style="ellipse;whiteSpace=wrap;html=1;fillColor=#b1ddf0;strokeColor=#10739e;" vertex="1" parent="1">
          <mxGeometry x="880" y="730" width="120" height="40" as="geometry" />
        </mxCell>
        <mxCell id="y8KlxEAlmwIgQg3cvcYe-70" value="" style="endArrow=none;html=1;rounded=0;entryX=1;entryY=1;entryDx=0;entryDy=0;exitX=0;exitY=0.5;exitDx=0;exitDy=0;" edge="1" parent="1" source="y8KlxEAlmwIgQg3cvcYe-68" target="y8KlxEAlmwIgQg3cvcYe-12">
          <mxGeometry width="50" height="50" relative="1" as="geometry">
            <mxPoint x="580" y="590" as="sourcePoint" />
            <mxPoint x="630" y="540" as="targetPoint" />
          </mxGeometry>
        </mxCell>
        <mxCell id="y8KlxEAlmwIgQg3cvcYe-71" value="" style="endArrow=none;html=1;rounded=0;entryX=1;entryY=0;entryDx=0;entryDy=0;exitX=0;exitY=0.5;exitDx=0;exitDy=0;" edge="1" parent="1" source="y8KlxEAlmwIgQg3cvcYe-69" target="y8KlxEAlmwIgQg3cvcYe-66">
          <mxGeometry width="50" height="50" relative="1" as="geometry">
            <mxPoint x="580" y="590" as="sourcePoint" />
            <mxPoint x="630" y="540" as="targetPoint" />
          </mxGeometry>
        </mxCell>
      </root>
    </mxGraphModel>
  </diagram>
</mxfile>
